<?xml version="1.0" encoding="UTF-8"?>
<!DOCTYPE svg  PUBLIC '-//W3C//DTD SVG 1.1//EN'  'http://www.w3.org/Graphics/SVG/1.1/DTD/svg11.dtd' [
	<!ENTITY st0 "fill:none;stroke:#FFFFFF;stroke-width:4;stroke-miterlimit:10;">
	<!ENTITY st1 "fill:#999999;">
	<!ENTITY st2 "font-family:'Roboto-Light';">
	<!ENTITY st3 "font-size:76.5093px;">
	<!ENTITY st4 "font-size:34.2636px;">
	<!ENTITY st5 "font-size:50.7924px;">
	<!ENTITY st6 "font-family:'Roboto-Medium';">
	<!ENTITY st7 "font-size:43.8449px;">
	<!ENTITY st8 "fill:#CCCCCC;">
	<!ENTITY st9 "fill:#B3B3B3;stroke:#CCCCCC;stroke-width:4.001;stroke-miterlimit:10;">
	<!ENTITY st10 "font-family:'Roboto-Bold';">
	<!ENTITY st11 "font-size:116.3715px;">
]>
<svg enable-background="new 0 0 2586 1903" version="1.1" viewBox="0 0 2586 1903" xml:space="preserve" xmlns="http://www.w3.org/2000/svg" xmlns:xlink="http://www.w3.org/1999/xlink">
<image width="2586" height="1903" overflow="visible" xlink:href="Territori_gibon_01_cobertura_arborea2.jpg">
</image>
<g fill="none" stroke="#fff" stroke-miterlimit="10" stroke-width="4">
	<path d="m557.8 885c-28.9-23.8-47.2-29.3-66.5-16.3-22.1 14.9-14.4 43.2-14.2 45.8 4.3 55.9 65.3 53.1 142.1 144.9 29.1 34.8 35.3 70 65 77.4 31 7.7 71.5-3.9 80.6-27.2 13-33.2-38.6-88.1-79.6-115.5-11.1-7.4-34.5-14.2-60.9-35-2.1-1.7-12.3-9.8-25.2-22.7-19-19.4-32.5-37.8-41.3-51.4z"/>
	<path d="m600.3 916.6c-5.7-11.3-13.6-27.4-6.5-42.5 6.3-13.5 22.6-22 37.1-20.7 9.3 0.9 15.6 6 28.3 16.3 11.9 9.7 22.1 18 29.4 31.6 9 16.6 3.7 22.6 10.9 49 8.5 31.1 20.2 38.8 16.3 43.6-9.1 11.5-85.7-18.5-115.5-77.3z"/>
	<path d="m541.4 814.2c1 2.8 35.4 35 47.6 33.8 10.1-1 14.9-23.5 32.3-64.9 14.7-35.1-5-36.7 0.8-56.1 12.6-42.2-24.3-63.2-10.9-94.8 8.8-20.9 64.3-54.2 56.7-73-10.6-26.2-17.8-27.4-26.2-45.8-3.9-8.5-49.2-4.9-69.3 6.5-21.7 12.4-109.4 6.5-52.7 71.9 46.8 54 23 72.5 20.7 128.6-1.6 37.2-11.7 58.8 1 93.8z"/>
</g>

	<text transform="translate(127.33 1322.7)" fill="#999999" font-family="'Roboto-Light'" font-size="76.509px">Océano Indico</text>
	<text transform="translate(1766.3 575.52)" fill="#999999" font-family="'Roboto-Light'" font-size="76.509px">Océano Pacífico</text>
	<text transform="translate(267.27 711.17)" fill="#999999" font-family="'Roboto-Light'" font-size="34.264px"><tspan x="0" y="0">Golfo de </tspan><tspan x="6.7" y="41.1">Bengala</tspan></text>
	<text transform="translate(1231.1 1575.3)" fill="#999999" font-family="'Roboto-Light'" font-size="50.792px">Australia</text>
	<text transform="translate(422.32 254.54)" fill="#999999" font-family="'Roboto-Light'" font-size="50.792px">Asía</text>
	<text transform="translate(799.46 678.48)" fill="#999999" font-family="'Roboto-Light'" font-size="34.264px"><tspan x="0" y="0">Mar de China</tspan><tspan x="20.8" y="41.1">Meridional</tspan></text>
	<text transform="translate(1153.7 761.87)" fill="#999999" font-family="'Roboto-Light'" font-size="34.264px">Philipinas</text>
	<text transform="translate(1391.7 1019)" fill="#999999" font-family="'Roboto-Light'" font-size="34.264px">Nueva Guinea</text>
	<text transform="translate(989.3 947.13)" fill="#999999" font-family="'Roboto-Light'" font-size="34.264px">Indonesia</text>
	<text transform="translate(747.08 927.51)" fill="#999999" font-family="'Roboto-Light'" font-size="34.264px">Borneo</text>
	<text transform="translate(1181.7 606.56)" fill="#999999" font-family="'Roboto-Light'" font-size="34.264px">Mar de Filipinas</text>
	<text transform="translate(462.98 1109.5)" font-family="'Roboto-Medium'" font-size="43.845px">Sumatra</text>
	<text transform="translate(667.85 885.01)" font-family="'Roboto-Medium'" font-size="43.845px">Malasia</text>
	<text transform="translate(595.92 662.7)" font-family="'Roboto-Medium'" font-size="43.845px">Tailandia</text>
	<text transform="translate(419.39 575.52)" font-family="'Roboto-Medium'" font-size="43.845px">Birmania</text>
	<text transform="translate(641.69 595.14)" font-family="'Roboto-Medium'" font-size="43.845px">Vietnam</text>
	<text transform="translate(606.82 429.49)" font-family="'Roboto-Medium'" font-size="43.845px">China</text>

		<path d="m2477.4 1774.3h-126.5c0.4-9 2.7-17.5 6.5-25.2l2.7-4.9 54.1-98.1 54.1 98.1 2.7 4.9c3.7 7.7 6 16.2 6.4 25.2z" fill="#999"/>
		<path d="m2414.2 1646.1v128.2h-63.2c0.4-9 2.7-17.5 6.5-25.2l2.7-4.9 54-98.1z" fill="#ccc"/>
		<path d="m2477.5 1777.2c0 35-28.3 63.3-63.3 63.3s-63.3-28.3-63.3-63.3c0-1 0-1.9 0.1-2.9 0.4-9 2.7-17.5 6.5-25.2 0.8-1.7 1.7-3.3 2.7-4.9 11.1-18.2 31.2-30.4 54.1-30.4s43 12.2 54.1 30.4c1 1.6 1.9 3.2 2.7 4.9 3.8 7.6 6.1 16.2 6.5 25.2-0.2 1-0.1 2-0.1 2.9z" fill="#B3B3B3" stroke="#ccc" stroke-miterlimit="10" stroke-width="4.001"/>
		<text transform="translate(2373.1 1820.6)" font-family="'Roboto-Bold'" font-size="116.37px">N</text>


</svg>
